# xmcd
#
# Track frame offsets:
#	150
#	17055
#	39475
#	68579
#	90448
#	113550
#	126513
#	167943
#	183272
#	200808
#	224112
#	251521
#	272330
#	294717
#	319439
#	333131
#
# Disc length: 4785 seconds
#
# Revision: 0
# Processed by: cddbd v1.5.2PL0 Copyright (c) Steve Scherf et al.
# Submitted via: EasyCDDAExtractor 8.2.3.1
#
DISCID=f112af10
DTITLE=Various Artist - Black Pure Blues CD-3
DYEAR=2003
DGENRE=Blues
TTITLE0=RUFUS THOMAS - Think Twice Before You Speak
TTITLE1=ALBERT KING - The Feeling
TTITLE2=LUTHER ALLISON - Put Your Money Where Your Mouth Is
TTITLE3=JUNIOR WELLS - Sweet Sixteen
TTITLE4=ERVIN CHARLES - Born in Louisiana
TTITLE5=JAY McSHANN - Hands Off
TTITLE6=JIMMY D'LANE - In This Bed
TTITLE7=C.J.CHENIER - Mixed Up and Confused
TTITLE8=JOHN LEE HOOKER - We'll Meet Again
TTITLE9=ALBERT COLLINS - Master Charge
TTITLE10=JOE LOUIS WALKER - Fix Our Love
TTITLE11=LUCKY PETERSON - Move on You
TTITLE12=PETE MAYES - You're Still My Baby
TTITLE13=ROBERT CRAY - Will You Think of Me
TTITLE14=KENNY NEAL - Strike While the Iron Is Hot
TTITLE15=MIGHTY SAM McCLAIN - New Man In Town
EXTD=
EXTT0=
EXTT1=
EXTT2=
EXTT3=
EXTT4=
EXTT5=
EXTT6=
EXTT7=
EXTT8=
EXTT9=
EXTT10=
EXTT11=
EXTT12=
EXTT13=
EXTT14=
EXTT15=
PLAYORDER=
